<?xml version="1.0" standalone="no"?>
<!DOCTYPE svg PUBLIC "-//W3C//DTD SVG 20010904//EN"
 "http://www.w3.org/TR/2001/REC-SVG-20010904/DTD/svg10.dtd">
<svg version="1.0" xmlns="http://www.w3.org/2000/svg"
 width="24.00000pt" height="1024.000000pt" viewBox="0 0 1024.000000 1024.000000"
 preserveAspectRatio="xMidYMid meet">

<g transform="translate(0.000000,1024.000000) scale(0.100000,-0.100000)"
fill="#ffb037" stroke="none">
<path d="M8316 8016 c-323 -377 -590 -687 -594 -690 -5 -3 -53 16 -107 40
-581 264 -1227 436 -1915 510 -198 21 -748 30 -970 15 -1205 -81 -2364 -517
-3365 -1266 -379 -283 -728 -603 -1054 -965 -57 -63 -105 -120 -108 -127 -2
-6 152 -194 344 -418 l348 -406 74 83 c885 983 1971 1618 3166 1852 343 67
596 91 985 91 447 0 755 -35 1174 -131 178 -41 468 -127 624 -185 21 -8 -7
-43 -384 -482 l-406 -474 -77 18 c-104 24 -280 54 -443 76 -194 26 -784 26
-983 0 -978 -127 -1821 -527 -2576 -1222 -129 -119 -384 -384 -424 -442 -13
-18 15 -53 333 -426 191 -223 350 -405 353 -404 3 1 55 56 116 122 267 293
607 564 948 758 519 296 1048 447 1650 472 252 10 301 99 -393 -710 l-600
-700 -124 -62 c-194 -98 -339 -195 -524 -350 -114 -94 -364 -346 -364 -365 0
-6 38 -54 85 -108 l85 -98 -623 -714 c-342 -393 -628 -721 -635 -731 -12 -14
8 -42 173 -234 102 -120 190 -218 196 -218 9 0 6968 8101 6976 8122 4 10 -252
321 -362 441 -9 10 -134 -130 -599 -672z"/>
<path d="M8400 6308 c-190 -221 -351 -409 -358 -419 -11 -16 0 -26 100 -95
409 -280 789 -615 1138 -1002 l75 -82 344 401 c189 221 344 408 345 415 3 33
-451 496 -709 723 -206 180 -560 461 -583 461 -4 0 -163 -181 -352 -402z"/>
<path d="M6906 4566 c-203 -238 -371 -436 -372 -442 -2 -5 63 -41 144 -81 429
-208 868 -543 1200 -916 l61 -68 332 388 c183 213 341 398 351 409 19 21 19
22 -75 125 -127 140 -370 379 -487 479 -137 118 -390 306 -527 392 -115 73
-246 149 -254 147 -2 0 -170 -195 -373 -433z"/>
<path d="M5237 2613 c-266 -307 -483 -559 -482 -561 1 -1 40 4 87 12 395 69
834 -17 1193 -234 138 -83 242 -165 376 -297 l126 -123 346 404 c191 222 347
409 347 415 0 19 -299 312 -400 392 -310 247 -631 416 -973 515 -65 19 -123
34 -127 34 -5 0 -227 -251 -493 -557z"/>
<path d="M4943 914 c-161 -35 -315 -119 -446 -244 -77 -73 -81 -79 -66 -96 9
-11 123 -144 253 -297 l238 -277 197 0 198 0 225 263 c124 144 238 277 253
295 l28 34 -80 77 c-132 129 -293 215 -460 247 -92 17 -257 17 -340 -2z"/>
</g>
</svg>
